<svg width="247" height="172" viewBox="0 0 247 172" fill="none" xmlns="http://www.w3.org/2000/svg">
<path d="M15.6329 36.5457C14.8297 36.7485 14.3429 37.564 14.5457 38.3673C14.7485 39.1705 15.5641 39.6572 16.3673 39.4544L15.6329 36.5457ZM99 38L98.3744 39.3634L99 38ZM157 130L157.747 128.699L157 130ZM226.025 146.095C226.63 145.529 226.661 144.579 226.095 143.975L216.867 134.121C216.3 133.517 215.351 133.486 214.747 134.052C214.142 134.618 214.111 135.567 214.677 136.172L222.88 144.931L214.121 153.133C213.517 153.7 213.486 154.649 214.052 155.254C214.618 155.858 215.567 155.889 216.172 155.323L226.025 146.095ZM16.0001 38.0001C16.3673 39.4544 16.3673 39.4544 16.3672 39.4544C16.3672 39.4544 16.3672 39.4544 16.3672 39.4544C16.3672 39.4544 16.3672 39.4544 16.3672 39.4544C16.3672 39.4544 16.3673 39.4544 16.3675 39.4544C16.3678 39.4543 16.3683 39.4542 16.3691 39.454C16.3708 39.4535 16.3734 39.4529 16.377 39.452C16.3843 39.4501 16.3955 39.4473 16.4107 39.4436C16.4411 39.436 16.4872 39.4246 16.5487 39.4095C16.6717 39.3793 16.8561 39.3344 17.0986 39.2767C17.5837 39.1612 18.3012 38.994 19.2251 38.7887L18.5744 35.8601C17.6348 36.0689 16.9025 36.2395 16.4036 36.3583C16.1542 36.4177 15.963 36.4642 15.8335 36.496C15.7687 36.5119 15.7193 36.5241 15.6858 36.5325C15.669 36.5366 15.6562 36.5399 15.6473 36.5421C15.6429 36.5432 15.6395 36.544 15.6371 36.5446C15.6359 36.5449 15.6349 36.5452 15.6342 36.5454C15.6339 36.5454 15.6336 36.5455 15.6334 36.5456C15.6333 36.5456 15.6332 36.5456 15.6331 36.5456C15.6331 36.5457 15.633 36.5457 15.633 36.5457C15.6329 36.5457 15.6329 36.5457 16.0001 38.0001ZM25.1072 37.5726C26.8569 37.2353 28.8259 36.8764 30.9741 36.5166L30.4785 33.5578C28.3043 33.9219 26.3112 34.2853 24.5394 34.6268L25.1072 37.5726ZM36.893 35.5991C38.7889 35.3291 40.7728 35.0696 42.8254 34.8306L42.4784 31.8507C40.3987 32.0929 38.3894 32.3557 36.4699 32.6291L36.893 35.5991ZM48.7706 34.2201C50.7205 34.0474 52.7112 33.899 54.7286 33.782L54.555 30.7871C52.5051 30.9059 50.484 31.0566 48.506 31.2318L48.7706 34.2201ZM60.6935 33.5366C62.673 33.4898 64.664 33.4787 66.6541 33.5098L66.7009 30.5101C64.6686 30.4784 62.6383 30.4898 60.6226 30.5374L60.6935 33.5366ZM72.6001 33.7351C74.5906 33.8574 76.5666 34.0289 78.5155 34.2559L78.8625 31.2761C76.8549 31.0422 74.8244 30.8661 72.7842 30.7407L72.6001 33.7351ZM84.3692 35.1281C86.3352 35.4902 88.2555 35.9197 90.1165 36.4232L90.9001 33.5274C88.9524 33.0003 86.9514 32.5533 84.9127 32.1777L84.3692 35.1281ZM95.6878 38.2324C96.6056 38.5863 97.5018 38.963 98.3744 39.3634L99.6255 36.6367C98.6935 36.2091 97.7398 35.8084 96.767 35.4333L95.6878 38.2324ZM98.3744 39.3634C99.3156 39.7952 100.221 40.2483 101.093 40.7214L102.524 38.0845C101.592 37.579 100.627 37.096 99.6255 36.6367L98.3744 39.3634ZM106.173 43.9669C107.818 45.1977 109.32 46.5191 110.698 47.9205L112.837 45.8171C111.355 44.3102 109.739 42.8885 107.97 41.5647L106.173 43.9669ZM114.597 52.5136C115.792 54.14 116.875 55.845 117.867 57.6173L120.485 56.1521C119.439 54.2833 118.29 52.4733 117.015 50.7379L114.597 52.5136ZM120.573 63.0852C121.387 64.9405 122.134 66.8479 122.831 68.7969L125.656 67.7856C124.939 65.7831 124.167 63.8095 123.32 61.8794L120.573 63.0852ZM124.772 74.6658C125.377 76.6318 125.954 78.6227 126.523 80.6306L129.409 79.8133C128.838 77.7948 128.254 75.7796 127.639 73.7829L124.772 74.6658ZM128.208 86.6461C128.772 88.6559 129.347 90.6712 129.949 92.6764L132.822 91.8134C132.228 89.8337 131.659 87.8385 131.096 85.835L128.208 86.6461ZM131.87 98.6851C132.558 100.687 133.294 102.67 134.099 104.62L136.872 103.476C136.094 101.591 135.379 99.6666 134.708 97.7112L131.87 98.6851ZM136.765 110.408C137.742 112.304 138.81 114.154 139.992 115.944L142.496 114.292C141.38 112.6 140.365 110.844 139.432 109.034L136.765 110.408ZM143.86 121.083C145.238 122.687 146.74 124.221 148.384 125.673L150.37 123.424C148.833 122.067 147.427 120.631 146.135 119.128L143.86 121.083ZM153.501 129.599C154.385 130.187 155.302 130.754 156.253 131.301L157.747 128.699C156.852 128.185 155.991 127.652 155.161 127.101L153.501 129.599ZM156.253 131.301C157.108 131.792 157.987 132.266 158.889 132.725L160.249 130.051C159.39 129.614 158.555 129.164 157.747 128.699L156.253 131.301ZM164.316 135.203C166.12 135.944 167.982 136.636 169.882 137.282L170.848 134.442C169 133.813 167.197 133.143 165.456 132.428L164.316 135.203ZM175.536 139.046C177.425 139.587 179.336 140.089 181.25 140.554L181.959 137.639C180.08 137.182 178.209 136.691 176.361 136.162L175.536 139.046ZM187.008 141.849C188.954 142.253 190.889 142.623 192.796 142.961L193.32 140.007C191.44 139.673 189.533 139.309 187.617 138.912L187.008 141.849ZM198.607 143.912C200.612 144.214 202.561 144.482 204.432 144.719L204.809 141.743C202.959 141.509 201.034 141.244 199.055 140.946L198.607 143.912ZM210.282 145.395C212.415 145.618 214.381 145.797 216.136 145.942L216.382 142.952C214.647 142.809 212.703 142.631 210.594 142.411L210.282 145.395ZM222.001 146.356C222.939 146.41 223.674 146.446 224.176 146.468C224.426 146.479 224.619 146.487 224.749 146.492C224.815 146.494 224.864 146.496 224.898 146.497C224.915 146.498 224.928 146.498 224.937 146.499C224.941 146.499 224.944 146.499 224.947 146.499C224.948 146.499 224.949 146.499 224.95 146.499C224.95 146.499 224.95 146.499 224.951 146.499C224.951 146.499 224.951 146.499 224.951 146.499C224.951 146.499 224.951 146.499 224.951 146.499C224.951 146.499 224.951 146.499 225 145C225.049 143.501 225.049 143.501 225.049 143.501C225.049 143.501 225.049 143.501 225.049 143.501C225.049 143.501 225.049 143.501 225.049 143.501C225.049 143.501 225.049 143.501 225.049 143.501C225.049 143.501 225.048 143.501 225.047 143.501C225.045 143.501 225.043 143.501 225.039 143.501C225.032 143.5 225.02 143.5 225.005 143.499C224.974 143.498 224.927 143.497 224.865 143.494C224.74 143.489 224.553 143.482 224.309 143.471C223.82 143.449 223.098 143.414 222.174 143.361L222.001 146.356ZM15.2657 35.0913C13.6593 35.4969 12.6858 37.128 13.0914 38.7344C13.497 40.3409 15.128 41.3144 16.7345 40.9088L15.2657 35.0913ZM99 38L97.7489 40.7267L99 38ZM157 130L158.494 127.399L157 130ZM227.051 147.19C228.26 146.057 228.322 144.159 227.19 142.949L208.733 123.243C207.601 122.033 205.702 121.971 204.493 123.104C203.284 124.236 203.221 126.135 204.354 127.344L220.76 144.861L203.243 161.267C202.033 162.399 201.971 164.298 203.104 165.507C204.236 166.717 206.135 166.779 207.344 165.646L227.051 147.19ZM16.0001 38.0001C16.7345 40.9088 16.7344 40.9088 16.7343 40.9088C16.7343 40.9088 16.7343 40.9088 16.7342 40.9088C16.7342 40.9089 16.7341 40.9089 16.7341 40.9089C16.734 40.9089 16.734 40.9089 16.7341 40.9089C16.7342 40.9089 16.7346 40.9088 16.7352 40.9086C16.7364 40.9083 16.7386 40.9077 16.7419 40.9069C16.7484 40.9053 16.7588 40.9027 16.7732 40.8991C16.802 40.8919 16.8465 40.8809 16.9064 40.8662C17.0261 40.8368 17.2071 40.7928 17.4461 40.7359C17.9242 40.622 18.6344 40.4565 19.5505 40.253L18.249 34.3958C17.3017 34.6063 16.562 34.7786 16.0561 34.8991C15.8032 34.9593 15.6087 35.0066 15.4759 35.0392C15.4095 35.0555 15.3585 35.0682 15.3233 35.0769C15.3057 35.0813 15.2921 35.0847 15.2825 35.0871C15.2777 35.0883 15.2739 35.0893 15.2711 35.09C15.2697 35.0903 15.2685 35.0906 15.2676 35.0908C15.2672 35.091 15.2668 35.0911 15.2665 35.0911C15.2663 35.0912 15.2662 35.0912 15.266 35.0913C15.266 35.0913 15.2659 35.0913 15.2659 35.0913C15.2658 35.0913 15.2657 35.0913 16.0001 38.0001ZM25.3911 39.0455C27.1297 38.7104 29.0866 38.3536 31.2218 37.996L30.2307 32.0784C28.0436 32.4447 26.0384 32.8103 24.2555 33.1539L25.3911 39.0455ZM37.1045 37.0841C38.9887 36.8158 40.9598 36.5579 42.9988 36.3205L42.3049 30.3608C40.2116 30.6045 38.1896 30.869 36.2584 31.1441L37.1045 37.0841ZM48.9029 35.7142C50.8388 35.5428 52.8142 35.3955 54.8154 35.2795L54.4682 29.2896C52.4021 29.4093 50.3658 29.5612 48.3736 29.7376L48.9029 35.7142ZM60.729 35.0362C62.6903 34.9898 64.6616 34.9789 66.6307 35.0096L66.7243 29.0103C64.6709 28.9783 62.6209 28.9897 60.5872 29.0378L60.729 35.0362ZM72.508 35.2322C74.4737 35.3531 76.4224 35.5223 78.342 35.7458L79.036 29.7861C76.9991 29.5489 74.9413 29.3705 72.8762 29.2435L72.508 35.2322ZM84.0975 36.6033C86.027 36.9587 87.9071 37.3793 89.7247 37.8712L91.2919 32.0795C89.3008 31.5407 87.2595 31.0848 85.1845 30.7025L84.0975 36.6033ZM95.1481 39.632C96.0384 39.9753 96.9059 40.3399 97.7489 40.7267L100.251 35.2734C99.2893 34.8321 98.3069 34.4194 97.3066 34.0337L95.1481 39.632ZM97.7489 40.7267C98.6601 41.1448 99.5359 41.583 100.378 42.0399L103.239 36.7661C102.278 36.2443 101.282 35.7464 100.251 35.2734L97.7489 40.7267ZM105.274 45.168C106.857 46.3523 108.302 47.6236 109.629 48.9722L113.907 44.7654C112.373 43.2058 110.7 41.7338 108.868 40.3636L105.274 45.168ZM113.388 53.4015C114.543 54.9734 115.593 56.6258 116.558 58.35L121.793 55.4195C120.72 53.5025 119.539 51.64 118.224 49.85L113.388 53.4015ZM119.2 63.6881C119.998 65.5059 120.731 67.3802 121.419 69.3026L127.068 67.28C126.341 65.2507 125.557 63.244 124.694 61.2765L119.2 63.6881ZM123.338 75.1073C123.939 77.0579 124.513 79.0367 125.08 81.0392L130.853 79.4047C130.28 77.3809 129.692 75.3535 129.073 73.3415L123.338 75.1073ZM126.764 87.0516C127.329 89.0645 127.907 91.0899 128.513 93.108L134.259 91.3818C133.668 89.415 133.102 87.4299 132.54 85.4295L126.764 87.0516ZM130.452 99.1721C131.147 101.197 131.894 103.209 132.712 105.193L138.258 102.903C137.494 101.052 136.79 99.1564 136.127 97.2243L130.452 99.1721ZM135.432 111.095C136.43 113.033 137.526 114.93 138.74 116.77L143.748 113.466C142.664 111.824 141.676 110.115 140.766 108.347L135.432 111.095ZM142.723 122.061C144.144 123.715 145.694 125.298 147.391 126.797L151.363 122.3C149.879 120.99 148.522 119.604 147.273 118.151L142.723 122.061ZM152.671 130.849C153.582 131.454 154.527 132.039 155.506 132.601L158.494 127.399C157.627 126.901 156.794 126.385 155.992 125.852L152.671 130.849ZM155.506 132.601C156.384 133.106 157.286 133.593 158.209 134.062L160.93 128.714C160.091 128.288 159.279 127.849 158.494 127.399L155.506 132.601ZM163.746 136.59C165.582 137.344 167.473 138.047 169.399 138.702L171.331 133.022C169.509 132.402 167.735 131.742 166.026 131.04L163.746 136.59ZM175.123 140.488C177.034 141.035 178.963 141.542 180.896 142.012L182.314 136.182C180.452 135.729 178.6 135.242 176.774 134.72L175.123 140.488ZM186.703 143.318C188.665 143.725 190.614 144.097 192.534 144.438L193.582 138.53C191.715 138.199 189.823 137.837 187.922 137.443L186.703 143.318ZM198.384 145.396C200.401 145.699 202.361 145.969 204.243 146.207L204.998 140.255C203.159 140.022 201.245 139.759 199.278 139.463L198.384 145.396ZM210.127 146.887C212.271 147.111 214.248 147.292 216.012 147.437L216.505 141.457C214.781 141.315 212.847 141.138 210.749 140.919L210.127 146.887ZM221.915 147.853C222.86 147.908 223.601 147.944 224.109 147.966C224.363 147.978 224.558 147.986 224.692 147.991C224.758 147.993 224.81 147.995 224.845 147.996C224.862 147.997 224.876 147.998 224.885 147.998C224.89 147.998 224.894 147.998 224.897 147.998C224.898 147.998 224.899 147.998 224.9 147.998C224.9 147.998 224.901 147.998 224.901 147.998C224.901 147.998 224.901 147.998 224.902 147.998C224.902 147.998 224.902 147.998 224.902 147.998C224.902 147.998 224.902 147.998 225 145C225.098 142.002 225.098 142.002 225.098 142.002C225.098 142.002 225.099 142.002 225.099 142.002C225.099 142.002 225.099 142.002 225.099 142.002C225.099 142.002 225.099 142.002 225.099 142.002C225.098 142.002 225.098 142.002 225.097 142.002C225.096 142.002 225.094 142.002 225.09 142.001C225.084 142.001 225.073 142.001 225.058 142C225.028 141.999 224.983 141.998 224.922 141.995C224.8 141.991 224.617 141.983 224.376 141.972C223.893 141.951 223.178 141.916 222.26 141.863L221.915 147.853Z" fill="white"/>
</svg>
