<svg width="16" height="9" viewBox="0 0 16 9" fill="none" xmlns="http://www.w3.org/2000/svg">
<path d="M7.29321 8.707C7.48074 8.89447 7.73505 8.99978 8.00021 8.99978C8.26538 8.99978 8.51969 8.89447 8.70721 8.707L15.0712 2.343C15.2489 2.15355 15.3458 1.90241 15.3416 1.64273C15.3374 1.38304 15.2323 1.13519 15.0486 0.951606C14.8649 0.768024 14.617 0.663117 14.3573 0.659084C14.0976 0.655051 13.8465 0.752208 13.6572 0.929997L8.00021 6.586L2.34321 0.928997C2.15376 0.751342 1.90263 0.654362 1.64294 0.658579C1.38326 0.662796 1.13541 0.767878 0.951823 0.951591C0.76824 1.1353 0.663333 1.38323 0.6593 1.64292C0.655267 1.9026 0.752424 2.15367 0.930214 2.343L7.29421 8.707H7.29321ZM7.00021 7V8H9.00021V7H7.00021Z" fill="#F7B905"/>
</svg>
