<svg width="27" height="17" viewBox="0 0 27 17" fill="none" xmlns="http://www.w3.org/2000/svg">
<path d="M25.813 9.28196C26.0286 9.06631 26.1497 8.77388 26.1497 8.46896C26.1497 8.16405 26.0286 7.87162 25.813 7.65596L18.495 0.336963C18.3882 0.230132 18.2613 0.14539 18.1218 0.0875738C17.9822 0.0297576 17.8326 1.5919e-09 17.6815 0C17.5304 -1.5919e-09 17.3808 0.0297576 17.2412 0.0875738C17.1017 0.14539 16.9748 0.230132 16.868 0.336963C16.7612 0.443793 16.6764 0.570619 16.6186 0.7102C16.5608 0.84978 16.531 0.999382 16.531 1.15046C16.531 1.30154 16.5608 1.45115 16.6186 1.59073C16.6764 1.73031 16.7612 1.85713 16.868 1.96396L23.374 8.46896L16.868 14.974C16.7612 15.0808 16.6764 15.2076 16.6186 15.3472C16.5608 15.4868 16.531 15.6364 16.531 15.7875C16.531 15.9385 16.5608 16.0881 16.6186 16.2277C16.6764 16.3673 16.7612 16.4941 16.868 16.601C16.9748 16.7078 17.1017 16.7925 17.2412 16.8504C17.3808 16.9082 17.5304 16.9379 17.6815 16.9379C17.8326 16.9379 17.9822 16.9082 18.1218 16.8504C18.2613 16.7925 18.3882 16.7078 18.495 16.601L25.813 9.28196ZM0 9.61896H25V7.31896H0V9.61896Z" fill="white"/>
</svg>
