<svg width="32" height="18" viewBox="0 0 32 18" fill="none" xmlns="http://www.w3.org/2000/svg">
<g clip-path="url(#clip0)">
<path d="M30.849 9.67859C30.9606 9.56714 31.0491 9.4348 31.1095 9.28912C31.1699 9.14344 31.2009 8.98729 31.2009 8.82959C31.2009 8.67189 31.1699 8.51574 31.1095 8.37006C31.0491 8.22438 30.9606 8.09204 30.849 7.98059L23.212 0.34459C22.9863 0.122574 22.6821 -0.00127906 22.3655 9.96183e-06C22.049 0.00129898 21.7457 0.127625 21.5219 0.351472C21.298 0.575319 21.1717 0.878549 21.1704 1.19511C21.1691 1.51168 21.293 1.81593 21.515 2.04159L28.303 8.82959L21.515 15.6176C21.293 15.8433 21.1691 16.1475 21.1704 16.4641C21.1717 16.7806 21.298 17.0839 21.5219 17.3077C21.7457 17.5316 22.049 17.6579 22.3655 17.6592C22.6821 17.6605 22.9863 17.5366 23.212 17.3146L30.849 9.67859ZM0 10.0296H30V7.62959H0V10.0296Z" fill="#F7B905"/>
</g>
<defs>
<clipPath id="clip0">
<rect width="32" height="18" fill="white"/>
</clipPath>
</defs>
</svg>
