<svg width="247" height="172" viewBox="0 0 247 172" fill="none" xmlns="http://www.w3.org/2000/svg">
<path d="M15.6995 135.211C14.8963 135.008 14.4096 134.193 14.6124 133.389C14.8152 132.586 15.6307 132.099 16.4339 132.302L15.6995 135.211ZM99.0666 133.757L98.4411 132.393L99.0666 133.757ZM157.067 41.7565L157.814 43.0572L157.067 41.7565ZM226.092 25.6617C226.697 26.228 226.728 27.1772 226.162 27.7819L216.933 37.6353C216.367 38.24 215.418 38.2711 214.813 37.7048C214.208 37.1385 214.177 36.1892 214.744 35.5846L222.947 26.826L214.188 18.6231C213.583 18.0568 213.552 17.1076 214.119 16.5029C214.685 15.8983 215.634 15.8672 216.239 16.4335L226.092 25.6617ZM16.0667 133.757C16.4339 132.302 16.4339 132.302 16.4339 132.302C16.4339 132.302 16.4338 132.302 16.4338 132.302C16.4338 132.302 16.4338 132.302 16.4338 132.302C16.4339 132.302 16.434 132.302 16.4341 132.302C16.4344 132.302 16.435 132.302 16.4358 132.303C16.4374 132.303 16.4401 132.304 16.4437 132.305C16.4509 132.306 16.4622 132.309 16.4774 132.313C16.5078 132.321 16.5539 132.332 16.6154 132.347C16.7384 132.377 16.9228 132.422 17.1653 132.48C17.6503 132.595 18.3678 132.763 19.2918 132.968L18.641 135.896C17.7015 135.688 16.9692 135.517 16.4703 135.398C16.2208 135.339 16.0297 135.292 15.9001 135.261C15.8354 135.245 15.786 135.232 15.7524 135.224C15.7356 135.22 15.7228 135.217 15.714 135.215C15.7096 135.213 15.7062 135.213 15.7037 135.212C15.7025 135.212 15.7016 135.211 15.7009 135.211C15.7005 135.211 15.7003 135.211 15.7 135.211C15.6999 135.211 15.6998 135.211 15.6997 135.211C15.6997 135.211 15.6997 135.211 15.6996 135.211C15.6996 135.211 15.6995 135.211 16.0667 133.757ZM25.1738 134.184C26.9235 134.521 28.8925 134.88 31.0407 135.24L30.5452 138.199C28.371 137.835 26.3778 137.471 24.6061 137.13L25.1738 134.184ZM36.9596 136.157C38.8556 136.428 40.8394 136.687 42.892 136.926L42.545 139.906C40.4653 139.664 38.4561 139.401 36.5366 139.127L36.9596 136.157ZM48.8373 137.537C50.7872 137.709 52.7778 137.858 54.7952 137.975L54.6217 140.97C52.5717 140.851 50.5507 140.7 48.5726 140.525L48.8373 137.537ZM60.7602 138.22C62.7396 138.267 64.7306 138.278 66.7208 138.247L66.7676 141.246C64.7353 141.278 62.7049 141.267 60.6893 141.219L60.7602 138.22ZM72.6667 138.022C74.6572 137.899 76.6332 137.728 78.5821 137.501L78.9292 140.481C76.9216 140.714 74.891 140.89 72.8508 141.016L72.6667 138.022ZM84.4359 136.629C86.4018 136.266 88.3222 135.837 90.1832 135.333L90.9668 138.229C89.019 138.756 87.0181 139.203 84.9794 139.579L84.4359 136.629ZM95.7544 133.524C96.6722 133.17 97.5684 132.794 98.4411 132.393L99.6922 135.12C98.7601 135.548 97.8065 135.948 96.8337 136.323L95.7544 133.524ZM98.4411 132.393C99.3823 131.961 100.288 131.508 101.16 131.035L102.591 133.672C101.659 134.178 100.693 134.661 99.6922 135.12L98.4411 132.393ZM106.24 127.79C107.885 126.559 109.387 125.237 110.765 123.836L112.904 125.939C111.422 127.446 109.806 128.868 108.037 130.192L106.24 127.79ZM114.664 119.243C115.858 117.617 116.941 115.912 117.933 114.139L120.551 115.604C119.505 117.473 118.357 119.283 117.082 121.019L114.664 119.243ZM120.64 108.671C121.454 106.816 122.2 104.909 122.898 102.96L125.722 103.971C125.005 105.973 124.234 107.947 123.387 109.877L120.64 108.671ZM124.838 97.0908C125.444 95.1248 126.021 93.1339 126.589 91.126L129.476 91.9433C128.904 93.9618 128.32 95.977 127.706 97.9737L124.838 97.0908ZM128.275 85.1105C128.839 83.1007 129.414 81.0854 130.016 79.0802L132.889 79.9432C132.294 81.9229 131.726 83.9181 131.163 85.9216L128.275 85.1105ZM131.937 73.0715C132.624 71.0696 133.36 69.0867 134.166 67.1363L136.939 68.281C136.161 70.1653 135.446 72.09 134.775 74.0454L131.937 73.0715ZM136.832 61.3482C137.808 59.4529 138.877 57.6029 140.058 55.8122L142.562 57.4642C141.446 59.1562 140.431 60.9124 139.499 62.7222L136.832 61.3482ZM143.927 50.6731C145.305 49.0695 146.807 47.5357 148.45 46.084L150.436 48.3325C148.899 49.6899 147.494 51.1251 146.202 52.6284L143.927 50.6731ZM153.568 42.1571C154.452 41.5696 155.368 41.0021 156.32 40.4558L157.814 43.0572C156.919 43.5713 156.057 44.1045 155.228 44.6556L153.568 42.1571ZM156.32 40.4558C157.174 39.9648 158.054 39.4902 158.956 39.0315L160.316 41.7053C159.457 42.1425 158.622 42.5931 157.814 43.0572L156.32 40.4558ZM164.383 36.5536C166.187 35.8128 168.048 35.1208 169.948 34.4746L170.914 37.3148C169.066 37.9434 167.263 38.6138 165.523 39.3287L164.383 36.5536ZM175.603 32.7105C177.492 32.1698 179.402 31.6679 181.317 31.2023L182.026 34.1173C180.147 34.5744 178.275 35.066 176.428 35.5947L175.603 32.7105ZM187.074 29.9077C189.021 29.5036 190.956 29.1339 192.863 28.7959L193.386 31.7498C191.506 32.0831 189.6 32.4473 187.684 32.845L187.074 29.9077ZM198.674 27.8443C200.678 27.5422 202.627 27.2745 204.499 27.0372L204.876 30.0134C203.026 30.2479 201.1 30.5125 199.121 30.8108L198.674 27.8443ZM210.349 26.3615C212.481 26.1389 214.448 25.9592 216.202 25.8146L216.449 28.8045C214.714 28.9474 212.769 29.1252 210.66 29.3453L210.349 26.3615ZM222.068 25.4009C223.006 25.3467 223.741 25.311 224.242 25.2886C224.493 25.2775 224.685 25.2697 224.816 25.2647C224.881 25.2622 224.931 25.2604 224.965 25.2592C224.982 25.2586 224.994 25.2581 225.003 25.2578C225.008 25.2577 225.011 25.2576 225.014 25.2575C225.015 25.2574 225.016 25.2574 225.016 25.2574C225.017 25.2574 225.017 25.2574 225.017 25.2574C225.017 25.2573 225.017 25.2573 225.017 25.2573C225.017 25.2573 225.018 25.2573 225.018 25.2573C225.018 25.2573 225.018 25.2573 225.067 26.7565C225.116 28.2557 225.116 28.2557 225.116 28.2557C225.116 28.2557 225.116 28.2557 225.116 28.2557C225.116 28.2557 225.116 28.2557 225.116 28.2557C225.116 28.2557 225.116 28.2557 225.116 28.2557C225.115 28.2557 225.115 28.2558 225.114 28.2558C225.112 28.2559 225.109 28.2559 225.106 28.2561C225.098 28.2563 225.087 28.2567 225.071 28.2573C225.04 28.2584 224.994 28.2601 224.931 28.2625C224.807 28.2673 224.62 28.2748 224.376 28.2857C223.886 28.3074 223.165 28.3426 222.24 28.3959L222.068 25.4009ZM15.3324 136.665C13.7259 136.26 12.7524 134.629 13.158 133.022C13.5636 131.416 15.1947 130.442 16.8011 130.848L15.3324 136.665ZM99.0666 133.757L97.8155 131.03L99.0666 133.757ZM157.067 41.7565L158.561 44.3579L157.067 41.7565ZM227.117 24.5669C228.327 25.6995 228.389 27.5979 227.256 28.8073L208.8 48.5141C207.667 49.7234 205.769 49.7856 204.56 48.653C203.35 47.5204 203.288 45.6219 204.421 44.4126L220.826 26.8955L203.309 10.4897C202.1 9.35711 202.038 7.45864 203.17 6.24933C204.303 5.04002 206.201 4.97783 207.411 6.11041L227.117 24.5669ZM16.0667 133.757C16.8011 130.848 16.8011 130.848 16.801 130.848C16.801 130.848 16.8009 130.848 16.8009 130.848C16.8008 130.848 16.8008 130.848 16.8007 130.848C16.8007 130.848 16.8007 130.848 16.8007 130.848C16.8008 130.848 16.8012 130.848 16.8018 130.848C16.8031 130.848 16.8053 130.849 16.8085 130.85C16.815 130.851 16.8255 130.854 16.8399 130.857C16.8686 130.865 16.9132 130.876 16.973 130.89C17.0927 130.92 17.2737 130.964 17.5128 131.021C17.9909 131.135 18.701 131.3 19.6171 131.504L18.3157 137.361C17.3683 137.15 16.6286 136.978 16.1228 136.857C15.8699 136.797 15.6753 136.75 15.5425 136.717C15.4761 136.701 15.4251 136.688 15.39 136.68C15.3724 136.675 15.3587 136.672 15.3491 136.669C15.3443 136.668 15.3405 136.667 15.3377 136.667C15.3363 136.666 15.3352 136.666 15.3343 136.666C15.3338 136.666 15.3334 136.666 15.3331 136.665C15.333 136.665 15.3328 136.665 15.3327 136.665C15.3326 136.665 15.3325 136.665 15.3325 136.665C15.3324 136.665 15.3324 136.665 16.0667 133.757ZM25.4577 132.711C27.1963 133.046 29.1533 133.403 31.2885 133.761L30.2974 139.678C28.1102 139.312 26.105 138.946 24.3222 138.603L25.4577 132.711ZM37.1712 134.672C39.0554 134.941 41.0265 135.199 43.0655 135.436L42.3716 141.396C40.2783 141.152 38.2563 140.888 36.325 140.612L37.1712 134.672ZM48.9696 136.042C50.9054 136.214 52.8808 136.361 54.882 136.477L54.5349 142.467C52.4687 142.347 50.4324 142.195 48.4403 142.019L48.9696 136.042ZM60.7956 136.72C62.757 136.767 64.7283 136.778 66.6974 136.747L66.791 142.746C64.7376 142.778 62.6876 142.767 60.6538 142.719L60.7956 136.72ZM72.5747 136.524C74.5403 136.404 76.489 136.234 78.4086 136.011L79.1027 141.97C77.0657 142.208 75.0079 142.386 72.9429 142.513L72.5747 136.524ZM84.1641 135.153C86.0937 134.798 87.9737 134.377 89.7913 133.885L91.3586 139.677C89.3675 140.216 87.3262 140.672 85.2511 141.054L84.1641 135.153ZM95.2148 132.125C96.1051 131.781 96.9726 131.417 97.8155 131.03L100.318 136.483C99.356 136.925 98.3736 137.337 97.3733 137.723L95.2148 132.125ZM97.8155 131.03C98.7268 130.612 99.6025 130.174 100.445 129.717L103.306 134.991C102.344 135.512 101.349 136.01 100.318 136.483L97.8155 131.03ZM105.341 126.589C106.924 125.404 108.369 124.133 109.695 122.784L113.973 126.991C112.44 128.551 110.767 130.023 108.935 131.393L105.341 126.589ZM113.455 118.355C114.609 116.783 115.659 115.131 116.624 113.407L121.86 116.337C120.787 118.254 119.606 120.117 118.291 121.907L113.455 118.355ZM119.266 108.069C120.064 106.251 120.798 104.376 121.486 102.454L127.135 104.477C126.408 106.506 125.624 108.513 124.76 110.48L119.266 108.069ZM123.405 96.6493C124.006 94.6987 124.579 92.7199 125.146 90.7174L130.919 92.3519C130.346 94.3757 129.759 96.4031 129.139 98.4151L123.405 96.6493ZM126.831 84.705C127.396 82.6921 127.973 80.6667 128.579 78.6486L134.326 80.3748C133.735 82.3416 133.169 84.3267 132.607 86.3271L126.831 84.705ZM130.518 72.5845C131.213 70.5594 131.96 68.5474 132.779 66.5639L138.325 68.8534C137.561 70.7045 136.856 72.6002 136.193 74.5323L130.518 72.5845ZM135.499 60.6612C136.497 58.7232 137.592 56.8262 138.806 54.9861L143.815 58.2903C142.731 59.9329 141.743 61.6421 140.832 63.4093L135.499 60.6612ZM142.789 49.6955C144.21 48.0416 145.76 46.4586 147.457 44.9598L151.429 49.4568C149.946 50.767 148.588 52.153 147.34 53.606L142.789 49.6955ZM152.737 40.9078C153.649 40.3021 154.593 39.7175 155.572 39.1551L158.561 44.3579C157.694 44.8559 156.86 45.3719 156.058 45.9049L152.737 40.9078ZM155.572 39.1551C156.451 38.6506 157.353 38.1641 158.275 37.6946L160.996 43.0422C160.158 43.4687 159.346 43.9072 158.561 44.3579L155.572 39.1551ZM163.813 35.1661C165.649 34.4122 167.539 33.7096 169.465 33.0545L171.397 38.7349C169.575 39.3546 167.802 40.0143 166.093 40.7162L163.813 35.1661ZM175.19 31.2684C177.1 30.7216 179.03 30.2147 180.963 29.7448L182.38 35.5748C180.519 36.0276 178.667 36.5141 176.841 37.0368L175.19 31.2684ZM186.769 28.439C188.731 28.0317 190.681 27.6593 192.601 27.3189L193.648 33.2268C191.781 33.5578 189.889 33.9192 187.989 34.3137L186.769 28.439ZM198.451 26.3611C200.467 26.0571 202.428 25.7877 204.31 25.5491L205.065 31.5015C203.226 31.7346 201.311 31.9976 199.345 32.2941L198.451 26.3611ZM210.193 24.8696C212.337 24.6458 214.315 24.4651 216.079 24.3197L216.572 30.2994C214.847 30.4415 212.913 30.6183 210.816 30.8372L210.193 24.8696ZM221.981 23.9034C222.927 23.8488 223.668 23.8127 224.176 23.7901C224.429 23.7788 224.625 23.7709 224.758 23.7658C224.825 23.7632 224.876 23.7614 224.911 23.7601C224.929 23.7595 224.943 23.759 224.952 23.7587C224.957 23.7585 224.961 23.7584 224.963 23.7583C224.965 23.7583 224.966 23.7582 224.967 23.7582C224.967 23.7582 224.968 23.7582 224.968 23.7582C224.968 23.7582 224.968 23.7582 224.968 23.7581C224.968 23.7582 224.968 23.7581 224.968 23.7581C224.968 23.7581 224.969 23.7581 225.067 26.7565C225.165 29.7549 225.165 29.7549 225.165 29.7549C225.165 29.7549 225.165 29.7549 225.165 29.7549C225.165 29.7549 225.165 29.7549 225.165 29.7549C225.165 29.7549 225.165 29.7549 225.165 29.7549C225.165 29.7549 225.165 29.7549 225.164 29.755C225.163 29.755 225.16 29.7551 225.157 29.7552C225.15 29.7554 225.139 29.7558 225.125 29.7563C225.095 29.7574 225.05 29.759 224.989 29.7614C224.867 29.766 224.684 29.7735 224.442 29.7842C223.959 29.8057 223.244 29.8405 222.327 29.8934L221.981 23.9034Z" fill="white"/>
</svg>
