<svg width="28" height="25" viewBox="0 0 28 25" fill="none" xmlns="http://www.w3.org/2000/svg">
<g clip-path="url(#clip0)">
<path fill-rule="evenodd" clip-rule="evenodd" d="M22.1851 23.4357C23.0502 23.4357 23.8799 23.085 24.4917 22.4608C25.1034 21.8366 25.4471 20.9899 25.4471 20.1071C25.4471 19.2243 25.1034 18.3777 24.4917 17.7535C23.8799 17.1293 23.0502 16.7786 22.1851 16.7786C21.32 16.7786 20.4903 17.1293 19.8785 17.7535C19.2668 18.3777 18.9231 19.2243 18.9231 20.1071C18.9231 20.9899 19.2668 21.8366 19.8785 22.4608C20.4903 23.085 21.32 23.4357 22.1851 23.4357ZM22.1851 20.7732C22.013 20.77 21.8488 20.6988 21.727 20.5746C21.6053 20.4503 21.5355 20.2828 21.5323 20.1071C21.5323 19.9754 21.5706 19.8466 21.6424 19.7371C21.7141 19.6276 21.816 19.5422 21.9353 19.4918C22.0546 19.4414 22.1858 19.4282 22.3124 19.4539C22.4391 19.4796 22.5554 19.543 22.6467 19.6362C22.738 19.7293 22.8001 19.848 22.8253 19.9772C22.8505 20.1064 22.8376 20.2403 22.7882 20.362C22.7388 20.4837 22.6551 20.5878 22.5477 20.661C22.4404 20.7341 22.3142 20.7732 22.1851 20.7732Z" fill="white"/>
<path d="M25.4472 13.316C25.7849 13.3287 26.1047 13.4745 26.3393 13.7227C26.5738 13.971 26.7049 14.3024 26.7049 14.6473C26.7049 14.9922 26.5738 15.3236 26.3393 15.5719C26.1047 15.8201 25.7849 15.9659 25.4472 15.9785H13.4282L11.7062 22.45C11.6145 22.791 11.3939 23.0808 11.0927 23.2558C10.7916 23.4308 10.4347 23.4765 10.1006 23.383C9.76638 23.2895 9.48231 23.0643 9.31083 22.7571C9.13935 22.4498 9.09451 22.0856 9.18618 21.7446L10.7262 15.9785H8.69268C8.34372 15.9797 8.00454 15.8609 7.7299 15.6413C7.45525 15.4216 7.26115 15.1139 7.17893 14.7678L4.20393 2.66248H1.30593C1.13058 2.66903 0.955739 2.63945 0.791849 2.5755C0.627959 2.51155 0.478385 2.41455 0.352063 2.29028C0.225741 2.16602 0.125264 2.01704 0.0566356 1.85226C-0.0119925 1.68748 -0.0473633 1.51027 -0.0473633 1.33123C-0.0473633 1.15218 -0.0119925 0.974976 0.0566356 0.810194C0.125264 0.645413 0.225741 0.496439 0.352063 0.372174C0.478385 0.247909 0.627959 0.150904 0.791849 0.0869543C0.955739 0.0230047 1.13058 -0.00657681 1.30593 -2.26201e-05H5.02293C5.74043 0.00354881 6.36343 0.501763 6.53668 1.21248L9.49943 13.316H25.4454H25.4472Z" fill="white"/>
<path fill-rule="evenodd" clip-rule="evenodd" d="M24.5862 11.9839C24.9462 11.9859 25.2959 11.8612 25.5764 11.631C25.8568 11.4007 26.051 11.0789 26.1262 10.7196L27.9655 1.92857C28.0136 1.69633 28.0104 1.45608 27.9561 1.22527C27.9018 0.994457 27.7978 0.77888 27.6517 0.594198C27.5056 0.409516 27.3209 0.260368 27.1113 0.157587C26.9016 0.0548056 26.6721 0.000973218 26.4395 0L10.0875 0C9.85691 0.00484296 9.63024 0.0615823 9.42364 0.166165C9.21705 0.270748 9.03564 0.420594 8.89237 0.604999C8.7491 0.789404 8.64751 1.00382 8.59485 1.23293C8.54219 1.46203 8.53976 1.70018 8.58773 1.93036L10.427 10.7196C10.581 11.4607 11.225 11.9875 11.967 11.9839H24.5862ZM12.7895 9.32143L11.393 2.66071H25.148L23.7515 9.31964H12.7895V9.32143Z" fill="white"/>
</g>
<defs>
<clipPath id="clip0">
<rect width="28" height="25" fill="white" transform="translate(0.000488281)"/>
</clipPath>
</defs>
</svg>
