<svg width="134" height="96" viewBox="0 0 134 96" fill="none" xmlns="http://www.w3.org/2000/svg">
<g clip-path="url(#clip0)">
<path d="M49.71 52C49.59 52 49.482 51.958 49.386 51.874C49.302 51.778 49.26 51.67 49.26 51.55V39.85C49.26 39.718 49.302 39.61 49.386 39.526C49.482 39.442 49.59 39.4 49.71 39.4H52.086C52.218 39.4 52.326 39.442 52.41 39.526C52.494 39.61 52.536 39.718 52.536 39.85V49.282H57.99C58.122 49.282 58.23 49.33 58.314 49.426C58.398 49.51 58.44 49.618 58.44 49.75V51.55C58.44 51.67 58.398 51.778 58.314 51.874C58.23 51.958 58.122 52 57.99 52H49.71ZM65.0582 52.18C63.9182 52.18 62.9402 52.012 62.1242 51.676C61.3082 51.34 60.6902 50.902 60.2702 50.362C59.8622 49.81 59.6462 49.21 59.6222 48.562C59.6222 48.466 59.6582 48.382 59.7302 48.31C59.8142 48.226 59.9102 48.184 60.0182 48.184H62.2862C62.4302 48.184 62.5442 48.214 62.6282 48.274C62.7242 48.322 62.8202 48.4 62.9162 48.508C63.0722 48.82 63.3242 49.078 63.6722 49.282C64.0202 49.486 64.4822 49.588 65.0582 49.588C65.7422 49.588 66.2642 49.48 66.6242 49.264C66.9842 49.048 67.1642 48.754 67.1642 48.382C67.1642 48.118 67.0682 47.902 66.8762 47.734C66.6962 47.566 66.4082 47.416 66.0122 47.284C65.6162 47.152 65.0282 47.002 64.2482 46.834C62.8082 46.534 61.7282 46.096 61.0082 45.52C60.3002 44.932 59.9462 44.098 59.9462 43.018C59.9462 42.286 60.1502 41.632 60.5582 41.056C60.9662 40.48 61.5482 40.03 62.3042 39.706C63.0602 39.382 63.9422 39.22 64.9502 39.22C65.9942 39.22 66.9002 39.4 67.6682 39.76C68.4362 40.12 69.0182 40.576 69.4142 41.128C69.8222 41.668 70.0382 42.202 70.0622 42.73C70.0622 42.838 70.0262 42.928 69.9542 43C69.8822 43.072 69.7922 43.108 69.6842 43.108H67.3082C67.1642 43.108 67.0442 43.084 66.9482 43.036C66.8642 42.988 66.7862 42.91 66.7142 42.802C66.6422 42.526 66.4442 42.292 66.1202 42.1C65.8082 41.908 65.4182 41.812 64.9502 41.812C64.4102 41.812 63.9962 41.908 63.7082 42.1C63.4202 42.292 63.2762 42.574 63.2762 42.946C63.2762 43.198 63.3542 43.408 63.5102 43.576C63.6782 43.744 63.9422 43.9 64.3022 44.044C64.6742 44.176 65.2022 44.314 65.8862 44.458C67.0022 44.662 67.8902 44.92 68.5502 45.232C69.2222 45.532 69.7142 45.928 70.0262 46.42C70.3382 46.9 70.4942 47.506 70.4942 48.238C70.4942 49.042 70.2602 49.744 69.7922 50.344C69.3362 50.932 68.6942 51.388 67.8662 51.712C67.0502 52.024 66.1142 52.18 65.0582 52.18ZM72.9078 55.42C72.7878 55.42 72.6798 55.378 72.5838 55.294C72.4998 55.21 72.4578 55.102 72.4578 54.97V43.09C72.4578 42.958 72.4998 42.85 72.5838 42.766C72.6798 42.682 72.7878 42.64 72.9078 42.64H74.9418C75.0738 42.64 75.1818 42.682 75.2658 42.766C75.3498 42.85 75.3918 42.958 75.3918 43.09V43.738C76.0398 42.886 76.9698 42.46 78.1818 42.46C79.3578 42.46 80.2758 42.826 80.9358 43.558C81.5958 44.29 81.9558 45.322 82.0158 46.654C82.0278 46.81 82.0338 47.032 82.0338 47.32C82.0338 47.608 82.0278 47.83 82.0158 47.986C81.9678 49.282 81.6078 50.308 80.9358 51.064C80.2638 51.808 79.3458 52.18 78.1818 52.18C77.0058 52.18 76.1298 51.778 75.5538 50.974V54.97C75.5538 55.102 75.5118 55.21 75.4278 55.294C75.3438 55.378 75.2358 55.42 75.1038 55.42H72.9078ZM77.2098 49.768C77.7738 49.768 78.1758 49.6 78.4158 49.264C78.6678 48.928 78.8118 48.466 78.8478 47.878C78.8718 47.638 78.8838 47.452 78.8838 47.32C78.8838 47.188 78.8718 47.002 78.8478 46.762C78.8118 46.174 78.6678 45.712 78.4158 45.376C78.1758 45.04 77.7738 44.872 77.2098 44.872C76.6578 44.872 76.2498 45.046 75.9858 45.394C75.7338 45.73 75.5898 46.168 75.5538 46.708L75.5358 47.374L75.5538 48.058C75.5778 48.55 75.7278 48.958 76.0038 49.282C76.2798 49.606 76.6818 49.768 77.2098 49.768ZM88.4933 52.18C87.0533 52.18 85.9193 51.79 85.0913 51.01C84.2633 50.23 83.8313 49.096 83.7953 47.608V46.978C83.8433 45.562 84.2813 44.458 85.1093 43.666C85.9493 42.862 87.0713 42.46 88.4753 42.46C89.4953 42.46 90.3533 42.67 91.0493 43.09C91.7573 43.498 92.2853 44.062 92.6333 44.782C92.9933 45.502 93.1733 46.33 93.1733 47.266V47.698C93.1733 47.818 93.1313 47.926 93.0473 48.022C92.9633 48.106 92.8553 48.148 92.7233 48.148H86.9633V48.274C86.9873 48.838 87.1253 49.294 87.3773 49.642C87.6293 49.99 87.9953 50.164 88.4753 50.164C88.7753 50.164 89.0213 50.104 89.2133 49.984C89.4053 49.852 89.5793 49.696 89.7353 49.516C89.8433 49.384 89.9273 49.306 89.9873 49.282C90.0593 49.246 90.1673 49.228 90.3113 49.228H92.5433C92.6513 49.228 92.7413 49.264 92.8133 49.336C92.8973 49.396 92.9393 49.48 92.9393 49.588C92.9393 49.9 92.7593 50.26 92.3993 50.668C92.0513 51.076 91.5413 51.43 90.8693 51.73C90.1973 52.03 89.4053 52.18 88.4933 52.18ZM90.0053 46.366V46.33C90.0053 45.742 89.8673 45.28 89.5913 44.944C89.3273 44.596 88.9553 44.422 88.4753 44.422C88.0073 44.422 87.6353 44.596 87.3593 44.944C87.0953 45.28 86.9633 45.742 86.9633 46.33V46.366H90.0053ZM99.5407 52.18C98.1007 52.18 96.9667 51.79 96.1387 51.01C95.3107 50.23 94.8787 49.096 94.8427 47.608V46.978C94.8907 45.562 95.3287 44.458 96.1567 43.666C96.9967 42.862 98.1187 42.46 99.5227 42.46C100.543 42.46 101.401 42.67 102.097 43.09C102.805 43.498 103.333 44.062 103.681 44.782C104.041 45.502 104.221 46.33 104.221 47.266V47.698C104.221 47.818 104.179 47.926 104.095 48.022C104.011 48.106 103.903 48.148 103.771 48.148H98.0107V48.274C98.0347 48.838 98.1727 49.294 98.4247 49.642C98.6767 49.99 99.0427 50.164 99.5227 50.164C99.8227 50.164 100.069 50.104 100.261 49.984C100.453 49.852 100.627 49.696 100.783 49.516C100.891 49.384 100.975 49.306 101.035 49.282C101.107 49.246 101.215 49.228 101.359 49.228H103.591C103.699 49.228 103.789 49.264 103.861 49.336C103.945 49.396 103.987 49.48 103.987 49.588C103.987 49.9 103.807 50.26 103.447 50.668C103.099 51.076 102.589 51.43 101.917 51.73C101.245 52.03 100.453 52.18 99.5407 52.18ZM101.053 46.366V46.33C101.053 45.742 100.915 45.28 100.639 44.944C100.375 44.596 100.003 44.422 99.5227 44.422C99.0547 44.422 98.6827 44.596 98.4067 44.944C98.1427 45.28 98.0107 45.742 98.0107 46.33V46.366H101.053ZM109.76 52.18C108.584 52.18 107.666 51.814 107.006 51.082C106.358 50.338 106.004 49.294 105.944 47.95L105.926 47.32L105.944 46.672C105.992 45.376 106.346 44.35 107.006 43.594C107.678 42.838 108.596 42.46 109.76 42.46C110.852 42.46 111.734 42.814 112.406 43.522V39.67C112.406 39.538 112.448 39.43 112.532 39.346C112.616 39.262 112.724 39.22 112.856 39.22H115.052C115.184 39.22 115.292 39.262 115.376 39.346C115.46 39.43 115.502 39.538 115.502 39.67V51.55C115.502 51.67 115.46 51.778 115.376 51.874C115.292 51.958 115.184 52 115.052 52H113.018C112.898 52 112.79 51.958 112.694 51.874C112.61 51.778 112.568 51.67 112.568 51.55V50.974C111.908 51.778 110.972 52.18 109.76 52.18ZM110.75 49.768C111.29 49.768 111.692 49.6 111.956 49.264C112.22 48.916 112.37 48.472 112.406 47.932C112.418 47.776 112.424 47.548 112.424 47.248C112.424 46.96 112.418 46.738 112.406 46.582C112.382 46.09 112.232 45.682 111.956 45.358C111.68 45.034 111.278 44.872 110.75 44.872C110.186 44.872 109.778 45.04 109.526 45.376C109.286 45.712 109.148 46.174 109.112 46.762C109.1 46.882 109.094 47.068 109.094 47.32C109.094 47.572 109.1 47.758 109.112 47.878C109.148 48.466 109.286 48.928 109.526 49.264C109.778 49.6 110.186 49.768 110.75 49.768ZM121.782 52C121.398 52 121.152 51.82 121.044 51.46L117.372 39.94L117.336 39.778C117.336 39.682 117.372 39.598 117.444 39.526C117.528 39.442 117.624 39.4 117.732 39.4H119.964C120.132 39.4 120.27 39.448 120.378 39.544C120.498 39.64 120.576 39.748 120.612 39.868L123.168 48.184L125.706 39.868C125.742 39.748 125.814 39.64 125.922 39.544C126.042 39.448 126.186 39.4 126.354 39.4H128.604C128.7 39.4 128.784 39.442 128.856 39.526C128.94 39.598 128.982 39.682 128.982 39.778L128.946 39.94L125.274 51.46C125.166 51.82 124.92 52 124.536 52H121.782Z" fill="white"/>
<path d="M65.008 67C64.92 67 64.848 66.972 64.792 66.916C64.736 66.86 64.708 66.788 64.708 66.7V61.06C64.708 60.972 64.736 60.9 64.792 60.844C64.848 60.788 64.92 60.76 65.008 60.76H66.388C66.476 60.76 66.548 60.792 66.604 60.856C66.668 60.912 66.7 60.98 66.7 61.06V61.54C67.14 61.02 67.732 60.76 68.476 60.76H69.004C69.092 60.76 69.164 60.788 69.22 60.844C69.276 60.9 69.304 60.972 69.304 61.06V62.296C69.304 62.376 69.276 62.448 69.22 62.512C69.164 62.568 69.092 62.596 69.004 62.596H67.84C67.512 62.596 67.256 62.688 67.072 62.872C66.896 63.048 66.808 63.3 66.808 63.628V66.7C66.808 66.788 66.776 66.86 66.712 66.916C66.656 66.972 66.584 67 66.496 67H65.008ZM73.2906 67.12C72.2986 67.12 71.5346 66.884 70.9986 66.412C70.4626 65.94 70.1706 65.276 70.1226 64.42C70.1146 64.316 70.1106 64.136 70.1106 63.88C70.1106 63.624 70.1146 63.444 70.1226 63.34C70.1706 62.492 70.4706 61.832 71.0226 61.36C71.5746 60.88 72.3306 60.64 73.2906 60.64C74.2586 60.64 75.0186 60.88 75.5706 61.36C76.1226 61.832 76.4226 62.492 76.4706 63.34C76.4786 63.444 76.4826 63.624 76.4826 63.88C76.4826 64.136 76.4786 64.316 76.4706 64.42C76.4226 65.276 76.1306 65.94 75.5946 66.412C75.0586 66.884 74.2906 67.12 73.2906 67.12ZM73.2906 65.656C73.6426 65.656 73.9026 65.552 74.0706 65.344C74.2386 65.128 74.3346 64.8 74.3586 64.36C74.3666 64.28 74.3706 64.12 74.3706 63.88C74.3706 63.64 74.3666 63.48 74.3586 63.4C74.3346 62.968 74.2346 62.644 74.0586 62.428C73.8906 62.212 73.6346 62.104 73.2906 62.104C72.6266 62.104 72.2746 62.536 72.2346 63.4L72.2226 63.88L72.2346 64.36C72.2506 64.8 72.3426 65.128 72.5106 65.344C72.6866 65.552 72.9466 65.656 73.2906 65.656ZM78.2146 67C78.1346 67 78.0626 66.972 77.9986 66.916C77.9426 66.852 77.9146 66.78 77.9146 66.7V58.78C77.9146 58.692 77.9426 58.62 77.9986 58.564C78.0626 58.508 78.1346 58.48 78.2146 58.48H79.6306C79.7186 58.48 79.7906 58.508 79.8466 58.564C79.9026 58.62 79.9306 58.692 79.9306 58.78V66.7C79.9306 66.788 79.9026 66.86 79.8466 66.916C79.7906 66.972 79.7186 67 79.6306 67H78.2146ZM84.4682 67.12C83.5082 67.12 82.7522 66.86 82.2002 66.34C81.6482 65.82 81.3602 65.064 81.3362 64.072V63.652C81.3682 62.708 81.6602 61.972 82.2122 61.444C82.7722 60.908 83.5202 60.64 84.4562 60.64C85.1362 60.64 85.7082 60.78 86.1722 61.06C86.6442 61.332 86.9962 61.708 87.2282 62.188C87.4682 62.668 87.5882 63.22 87.5882 63.844V64.132C87.5882 64.212 87.5602 64.284 87.5042 64.348C87.4482 64.404 87.3762 64.432 87.2882 64.432H83.4482V64.516C83.4642 64.892 83.5562 65.196 83.7242 65.428C83.8922 65.66 84.1362 65.776 84.4562 65.776C84.6562 65.776 84.8202 65.736 84.9482 65.656C85.0762 65.568 85.1922 65.464 85.2962 65.344C85.3682 65.256 85.4242 65.204 85.4642 65.188C85.5122 65.164 85.5842 65.152 85.6802 65.152H87.1682C87.2402 65.152 87.3002 65.176 87.3482 65.224C87.4042 65.264 87.4322 65.32 87.4322 65.392C87.4322 65.6 87.3122 65.84 87.0722 66.112C86.8402 66.384 86.5002 66.62 86.0522 66.82C85.6042 67.02 85.0762 67.12 84.4682 67.12ZM85.4762 63.244V63.22C85.4762 62.828 85.3842 62.52 85.2002 62.296C85.0242 62.064 84.7762 61.948 84.4562 61.948C84.1442 61.948 83.8962 62.064 83.7122 62.296C83.5362 62.52 83.4482 62.828 83.4482 63.22V63.244H85.4762ZM89.2532 69.28C89.1732 69.28 89.1012 69.252 89.0372 69.196C88.9812 69.14 88.9532 69.068 88.9532 68.98V61.06C88.9532 60.972 88.9812 60.9 89.0372 60.844C89.1012 60.788 89.1732 60.76 89.2532 60.76H90.6092C90.6972 60.76 90.7692 60.788 90.8252 60.844C90.8812 60.9 90.9092 60.972 90.9092 61.06V61.492C91.3412 60.924 91.9612 60.64 92.7692 60.64C93.5532 60.64 94.1652 60.884 94.6052 61.372C95.0452 61.86 95.2852 62.548 95.3252 63.436C95.3332 63.54 95.3372 63.688 95.3372 63.88C95.3372 64.072 95.3332 64.22 95.3252 64.324C95.2932 65.188 95.0532 65.872 94.6052 66.376C94.1572 66.872 93.5452 67.12 92.7692 67.12C91.9852 67.12 91.4012 66.852 91.0172 66.316V68.98C91.0172 69.068 90.9892 69.14 90.9332 69.196C90.8772 69.252 90.8052 69.28 90.7172 69.28H89.2532ZM92.1212 65.512C92.4972 65.512 92.7652 65.4 92.9252 65.176C93.0932 64.952 93.1892 64.644 93.2132 64.252C93.2292 64.092 93.2372 63.968 93.2372 63.88C93.2372 63.792 93.2292 63.668 93.2132 63.508C93.1892 63.116 93.0932 62.808 92.9252 62.584C92.7652 62.36 92.4972 62.248 92.1212 62.248C91.7532 62.248 91.4812 62.364 91.3052 62.596C91.1372 62.82 91.0412 63.112 91.0172 63.472L91.0052 63.916L91.0172 64.372C91.0332 64.7 91.1332 64.972 91.3172 65.188C91.5012 65.404 91.7692 65.512 92.1212 65.512ZM97.0635 67C96.9835 67 96.9115 66.972 96.8475 66.916C96.7915 66.852 96.7635 66.78 96.7635 66.7V58.78C96.7635 58.692 96.7915 58.62 96.8475 58.564C96.9115 58.508 96.9835 58.48 97.0635 58.48H98.4795C98.5675 58.48 98.6395 58.508 98.6955 58.564C98.7515 58.62 98.7795 58.692 98.7795 58.78V66.7C98.7795 66.788 98.7515 66.86 98.6955 66.916C98.6395 66.972 98.5675 67 98.4795 67H97.0635ZM102.309 67.12C101.885 67.12 101.497 67.04 101.145 66.88C100.801 66.712 100.529 66.488 100.329 66.208C100.137 65.92 100.041 65.604 100.041 65.26C100.041 64.708 100.265 64.264 100.713 63.928C101.169 63.592 101.793 63.36 102.585 63.232L104.085 63.004V62.836C104.085 62.532 104.021 62.308 103.893 62.164C103.765 62.02 103.549 61.948 103.245 61.948C103.061 61.948 102.909 61.98 102.789 62.044C102.669 62.108 102.545 62.196 102.417 62.308C102.305 62.404 102.221 62.468 102.165 62.5C102.141 62.564 102.097 62.596 102.033 62.596H100.725C100.645 62.596 100.577 62.572 100.521 62.524C100.473 62.468 100.453 62.404 100.461 62.332C100.469 62.116 100.573 61.876 100.773 61.612C100.981 61.348 101.293 61.12 101.709 60.928C102.133 60.736 102.653 60.64 103.269 60.64C104.253 60.64 104.981 60.86 105.453 61.3C105.925 61.732 106.161 62.316 106.161 63.052V66.7C106.161 66.78 106.133 66.852 106.077 66.916C106.021 66.972 105.949 67 105.861 67H104.469C104.389 67 104.317 66.972 104.253 66.916C104.197 66.852 104.169 66.78 104.169 66.7V66.28C103.993 66.528 103.745 66.732 103.425 66.892C103.113 67.044 102.741 67.12 102.309 67.12ZM102.873 65.752C103.241 65.752 103.537 65.632 103.761 65.392C103.993 65.152 104.109 64.8 104.109 64.336V64.168L103.089 64.348C102.369 64.476 102.009 64.728 102.009 65.104C102.009 65.304 102.093 65.464 102.261 65.584C102.429 65.696 102.633 65.752 102.873 65.752ZM108.72 69.28C108.648 69.28 108.588 69.256 108.54 69.208C108.492 69.16 108.468 69.1 108.468 69.028C108.468 68.972 108.48 68.92 108.504 68.872L109.44 66.616L107.136 61.168C107.112 61.104 107.1 61.056 107.1 61.024C107.116 60.952 107.148 60.892 107.196 60.844C107.244 60.788 107.304 60.76 107.376 60.76H108.744C108.912 60.76 109.028 60.844 109.092 61.012L110.46 64.504L111.864 61.012C111.944 60.844 112.064 60.76 112.224 60.76H113.568C113.64 60.76 113.7 60.788 113.748 60.844C113.804 60.892 113.832 60.948 113.832 61.012C113.832 61.044 113.82 61.096 113.796 61.168L110.4 69.028C110.336 69.196 110.216 69.28 110.04 69.28H108.72Z" fill="#A0A0A0"/>
<path d="M24.246 87.6926L80.1292 76.1837C82.0016 75.659 81.5137 72.8813 79.5746 73.0261L24.8628 77.1125L24.246 87.6926Z" fill="url(#paint0_linear)"/>
<path d="M16.0198 8.63387C-6.36721 -7.61833 36.2043 19.583 36.2043 19.583L16.6962 72.0335C13.2235 82.6719 9.92043 90.2511 9.92043 90.2511L16.6962 72.0335C23.4218 51.43 30.7837 19.3519 16.0198 8.63387Z" fill="url(#paint1_linear)"/>
<path d="M40.172 33.1361C23.5523 75.1672 19.8595 87.4647 43.6414 83.5636C55.919 80.9355 63.7296 79.2852 48.961 82.5293C47.0538 82.9482 45.2822 83.2944 43.6414 83.5636C30.0612 86.4706 11.0158 90.574 11.0158 90.574L37.3435 20.3357C40.8165 23.6099 41.9271 28.6975 40.172 33.1361Z" fill="url(#paint2_linear)"/>
</g>
<defs>
<linearGradient id="paint0_linear" x1="81.5895" y1="55.756" x2="33.3756" y2="98.0903" gradientUnits="userSpaceOnUse">
<stop stop-color="#4CD4FF"/>
<stop offset="0.901042" stop-color="#272AF1"/>
<stop offset="1" stop-color="#321FFF"/>
</linearGradient>
<linearGradient id="paint1_linear" x1="14.7602" y1="2.63088" x2="28.2117" y2="87.3468" gradientUnits="userSpaceOnUse">
<stop stop-color="#4CD4FF"/>
<stop offset="0.901042" stop-color="#272AF1"/>
<stop offset="1" stop-color="#321FFF"/>
</linearGradient>
<linearGradient id="paint2_linear" x1="27.8556" y1="22.4369" x2="41.5831" y2="84.4251" gradientUnits="userSpaceOnUse">
<stop stop-color="#4CD4FF"/>
<stop offset="0.901042" stop-color="#3B3DF0"/>
<stop offset="1" stop-color="#321FFF"/>
</linearGradient>
<clipPath id="clip0">
<rect width="134" height="96" fill="white"/>
</clipPath>
</defs>
</svg>
